<svg width="284" height="31" viewBox="0 0 284 31" fill="none" xmlns="http://www.w3.org/2000/svg">
<path fill-rule="evenodd" clip-rule="evenodd" d="M209.644 20.4151L209.501 21.6465H213.334C213.334 20.7443 213.049 20.3338 212.484 20.4151H209.644ZM179.911 18.3948C182.694 18.5829 184.212 20.9389 184.46 25.4606L183.466 25.7086C182.426 22.6727 180.248 21.3173 176.936 21.6465L178.64 18.4461C179.09 18.3841 179.513 18.367 179.911 18.3948ZM36.5389 17.9543C35.2135 18.6919 33.8415 19.5535 32.4227 20.5391L36.5389 24.4772V17.9543ZM148.064 14.9997C147.21 16.3124 146.453 17.7897 145.792 19.4316L148.064 24.3532V14.9997ZM238.376 14.2621C234.781 14.3434 232.934 15.4508 232.841 17.5845C232.841 19.6347 234.495 20.661 237.808 20.661C240.173 20.9068 242.113 19.6775 243.628 16.9687C241.924 14.9185 240.173 14.0141 238.376 14.2621ZM211.773 14.0141C211.112 14.0975 210.684 14.5486 210.494 15.3696H214.045C213.949 14.384 213.524 13.9329 212.766 14.0141H211.773ZM189.569 12.7848H191.699L191.273 14.508H197.662L196.383 17.3386H191.273V29.7685H189.569V17.3386H172.537L173.813 14.508H189.144L189.569 12.7848ZM208.793 11.5534H219.58L218.444 14.0141H215.038V15.3696H219.437L218.869 17.4605V20.5391H217.451V19.1836C217.451 18.9378 217.404 18.6919 217.308 18.4461C217.119 17.7085 216.789 17.298 216.315 17.2146H210.069C209.976 17.3792 209.926 17.5845 209.926 17.8303C209.833 18.0762 209.786 18.2814 209.786 18.4461H217.308L216.6 20.4151H214.328V21.6465H219.58L218.444 24.1073H209.361C209.361 24.2719 209.361 24.4772 209.361 24.723H208.508C208.604 19.143 208.744 15.5748 208.933 14.0141H207.657L208.793 11.5534ZM88.3252 10.076H111.321L109.759 13.6464H86.6237L88.3252 10.076ZM159.276 9.9542H161.548L161.263 12.2931H168.93L167.651 15.2456H161.12V17.0927C164.243 16.2718 166.847 20.6203 168.93 30.1384L168.219 30.3843C165.854 23.4916 163.488 20.1286 161.12 20.2911V26.5702H159.561V20.1692C159.372 20.088 159.04 20.088 158.565 20.1692C158.283 20.1692 158.093 20.1692 157.997 20.1692L159.561 17.0927V15.3696C158.047 15.2862 155.728 18.8565 152.605 26.0763L151.752 25.8305C154.024 19.7587 155.492 16.2312 156.153 15.2456H151.469L152.888 12.2931H158.851L159.276 9.9542ZM176.228 9.83018H192.692L191.556 12.539H175.234L176.228 9.83018ZM1.41878 8.84674H5.67753L4.54153 12.0451V20.4151C5.5841 20.5797 6.52832 19.9234 7.38155 18.4461L7.94953 18.8159C6.90697 22.2623 5.72427 23.9021 4.40139 23.7374H2.98015V16.2312C2.98015 13.2765 2.46134 11.8398 1.41878 11.9232H0L1.41878 8.84674ZM128.983 8.72275H136.635L136.64 8.74198L135.371 11.4315H130.827V14.9997C130.827 16.0665 131.301 16.5582 132.248 16.477H134.943C137.026 16.6416 138.398 15.8207 139.062 14.0141L139.77 14.2621C139.012 17.8709 137.311 19.5535 134.66 19.3077H131.68C130.165 19.3077 129.408 18.4867 129.408 16.8469V14.9997C129.408 12.6202 128.936 11.4315 127.989 11.4315H127.847L128.983 8.72275ZM66.4068 7.49129H68.6788L68.1108 10.4459V26.0763H66.5494V11.5534L65.6987 10.2L66.4068 7.49129ZM177.364 6.38383H191.984L191.131 8.72275H176.37L177.364 6.38383ZM157.53 5.99046C157.737 5.96481 157.938 5.97336 158.14 6.01612L159.276 8.96859C157.668 8.72273 155.775 9.58433 153.599 11.5534L152.888 11.3075C154.545 7.93384 156.092 6.1615 157.53 5.99046ZM176.51 2.32176H194.679L194.254 4.66067V12.7848H192.692V9.83018V8.84674C192.788 6.21922 192.267 4.9899 191.131 5.15238H175.234L176.51 2.32176ZM153.599 2.32176H168.502L167.083 7.61529L165.972 7.49343L166.043 7.57254C166.749 8.44268 167.474 9.64634 168.219 11.1835L167.508 11.6774C165.522 9.5437 163.582 8.64148 161.688 8.96859L162.682 6.01612C163.535 5.68687 164.422 5.95411 165.345 6.8157L165.952 7.47417L166.515 5.2764H154.449V7.73714H153.456C153.267 6.26196 152.935 5.40038 152.463 5.15238L153.599 2.32176ZM128.983 2.32176H138.919L138.208 5.03053V11.5534H136.79V9.70833L136.64 8.74198L136.647 8.72275H136.635L136.256 6.29192C135.902 5.53295 135.371 5.15238 134.66 5.15238H127.564L128.983 2.32176ZM72.9376 2.32176H81.5953L81.0273 4.41481V30.2624H79.4659V12.0451C79.4659 7.69652 78.4725 5.60563 76.4858 5.76811H71.659L72.9376 2.32176ZM2.272 2.32176H6.95617L5.67753 5.52224H0.850761L2.272 2.32176ZM49.0226 1.98612C50.8839 2.06736 52.0224 4.19031 52.438 8.35286L51.5847 8.59873C50.3553 5.64624 48.8898 4.33357 47.1858 4.66067L48.1792 2.07589C48.4742 2.00534 48.7546 1.97543 49.0226 1.98612ZM216.6 1.83005C215.747 1.83005 214.424 2.32176 212.624 3.30735H218.161C218.161 3.14272 218.161 3.06148 218.161 3.06148C218.161 2.24051 217.64 1.83005 216.6 1.83005ZM68.2018 1.42384C69.9501 1.61198 70.8672 3.71782 70.9508 7.73714L70.0976 8.10702C69.4361 5.56288 68.0174 4.41481 65.8388 4.66067L67.4002 1.46017C67.6854 1.40886 67.951 1.39819 68.2018 1.42384ZM271.084 0.476724H273.496L272.928 3.43136V9.9542C276.429 5.03054 279.269 2.85626 281.445 3.43136L282.721 6.99956C280.924 6.91832 279.458 7.24542 278.322 7.98514C277.093 8.72273 275.293 10.3647 272.928 12.9067V19.3077C272.928 20.2911 273.592 20.7849 274.914 20.7849H278.748C280.924 19.7181 282.675 23.0405 284 30.7541L283.149 31C281.635 25.9117 280.12 23.6562 278.605 24.2313H274.346C272.266 24.2313 271.224 23.2051 271.224 21.1527V14.7538C269.994 16.0665 268.529 17.7085 266.825 19.6775L266.257 19.1836C268.433 15.9853 270.09 13.6464 271.224 12.1691V4.16894L270.516 3.18335L271.084 0.476724ZM14.0525 0.230857H16.1819L15.8991 2.56977V6.99956H23.706L22.57 10.2H15.8991V20.0452H20.5832C23.0421 19.143 24.7461 22.63 25.6928 30.5083L24.8396 30.6301C23.706 25.2981 22.0487 22.8759 19.8726 23.3697H7.38155L8.80032 20.0452H14.3377V3.6772L13.4845 2.81564L14.0525 0.230857ZM241.073 0.106866C242.966 -0.138996 244.242 1.00907 244.906 3.55321L244.196 3.92307H254.7L253.281 7.24543H249.873C249.78 7.57467 249.59 8.0664 249.305 8.72275C247.791 12.5796 246.704 15.1643 246.04 16.477C247.65 18.7731 250.488 23.2051 254.557 29.7685L253.564 30.3843C249.212 24.2313 246.372 20.2911 245.047 18.5701C243.06 22.5894 240.552 24.3938 237.525 23.9854C233.738 23.8208 231.798 21.6872 231.705 17.5845C231.705 13.2359 234.023 10.9782 238.661 10.8158C240.648 10.6511 242.681 11.9232 244.764 14.6299C245.71 12.9067 246.797 10.4459 248.029 7.24543H230.854L232.13 3.92307H244.053C243.106 3.02086 241.452 2.61038 239.086 2.69162L241.073 0.106866ZM207.94 0.106866H210.212L209.644 2.69162V3.30735H211.062C213.807 1.41955 216.268 0.436113 218.444 0.352734C220.241 0.352734 221.141 1.05182 221.141 2.44575C221.141 2.52699 221.141 2.65102 221.141 2.81564C221.045 2.97812 220.999 3.14272 220.999 3.30735H226.536L225.258 6.13797H220.573C220.859 6.38383 221.141 7.04019 221.424 8.10702H222.277L222.845 6.50783C224.736 5.93272 225.919 7.65591 226.393 11.6774L225.683 11.9232C224.832 10.3647 224.075 9.5437 223.413 9.46032L223.128 10.6918H222.135C222.42 11.6774 222.703 12.9494 222.985 14.508C223.839 13.3578 224.736 12.8254 225.683 12.9067L226.536 15.8613C225.494 15.8613 224.547 16.5583 223.696 17.9543C224.264 21.1527 224.975 25.2147 225.825 30.1384L224.975 30.6301C224.028 26.2816 223.175 22.63 222.42 19.6775C221.945 20.5797 221.095 22.4675 219.863 25.3388C219.484 26.1597 219.201 26.7733 219.012 27.1838L218.301 27.0619C219.248 23.7802 220.337 20.3338 221.567 16.7229C221.188 14.6705 220.669 12.6608 220.005 10.6918H206.946V25.7086H205.527V19.7994C204.298 19.7994 203.115 21.6465 201.979 25.3388L201.269 25.0929C201.554 23.7802 201.979 22.3435 202.547 20.7849C202.641 20.2911 202.737 19.964 202.83 19.7994H201.411L202.547 17.3386H205.527V15.4914H203.255V15.7373H201.979V11.6774L201.269 10.8158L201.837 8.47688H203.823L203.255 10.9376V12.7848H205.527C205.338 11.6346 204.959 10.897 204.391 10.5699L205.67 8.10702H218.869C218.869 8.02578 218.823 7.94239 218.729 7.86115C218.633 7.61529 218.444 7.45066 218.161 7.36942L220.148 6.13797H218.301C218.112 6.30259 217.687 6.62969 217.025 7.12355C216.457 7.45065 216.032 7.73714 215.747 7.98514L215.038 7.61529C215.606 7.12356 216.079 6.62969 216.457 6.13797H209.644V7.61529H208.225V6.13797H201.126L202.405 3.30735H207.799L207.372 2.69162L207.94 0.106866ZM147.921 0.106866H150.05L149.482 2.69162V3.79908H152.748L151.327 6.75369H149.482V10.9376C150.618 10.2001 151.658 9.62494 152.605 9.21446L153.173 9.70833C151.848 10.6105 150.618 11.8826 149.482 13.5224V26.4462H148.064V26.2003L143.662 17.2146C144.892 14.9997 146.36 13.1953 148.064 11.7992V6.75369H143.945L145.366 3.79908H148.064L147.353 2.56977L147.921 0.106866ZM121.033 0.106866H123.02L122.595 2.44575V3.30735H127.279L126.003 6.26198H122.595V8.84674H127.421L126.143 11.7992H122.88V14.8757H127.421L126.285 17.5845H122.88V21.0308H123.02H135.371C137.547 20.2098 139.202 23.3291 140.338 30.3843L139.487 30.6301C138.351 25.7899 136.694 23.6156 134.518 24.1073H123.02C120.94 24.1907 119.189 23.0811 117.768 20.7849C117.768 20.9496 117.721 21.1954 117.628 21.5226C117.342 22.5894 116.774 24.5178 115.924 27.3078L115.07 27.0619C116.396 17.4605 117.578 12.866 118.621 13.2765L120.75 15.9853C119.897 16.1478 119.189 16.8875 118.621 18.2002C119.661 19.7587 120.655 20.661 121.601 20.9068V15.3696C121.601 12.9067 120.891 11.718 119.472 11.7992H114.93L116.349 8.84674H121.033V6.26198H116.066L117.342 3.30735H121.033L120.465 2.44575L121.033 0.106866ZM62.8709 0.0726518C62.9644 0.0598242 63.0529 0.0705212 63.1439 0.106866L65.8388 2.44575C64.516 3.02086 63.3308 4.25017 62.2907 6.13797V26.4462H60.7293V10.076C60.7293 10.1594 60.6826 10.3219 60.5867 10.5699C59.5466 13.4411 58.7425 15.7801 58.1745 17.5845L57.4639 17.2146C59.6818 5.98405 61.4841 0.269342 62.8709 0.0726518ZM265.32 0.0405776C265.401 0.0384396 265.477 0.0619694 265.546 0.106866L268.243 2.69162C266.825 2.93748 265.499 4.20955 264.27 6.50783V25.4606H262.709V9.83018C261.762 11.5534 260.722 13.8923 259.586 16.8469L258.733 16.477C261.927 5.55431 264.122 0.0747845 265.32 0.0405776ZM42.9565 0.00852946C44.3335 0.196668 45.5998 3.30736 46.7604 9.33847H53.7141L52.2954 12.539H47.3284L47.894 15.8613C48.9365 15.1237 50.0725 14.7132 51.302 14.6299L52.438 17.7085C51.1126 17.7897 49.834 18.2814 48.6046 19.1836C48.7939 20.4963 49.1258 22.6727 49.5979 25.7086C49.9766 27.6777 50.2619 29.2362 50.4512 30.3843L49.5979 30.6301C49.2193 28.9903 48.7005 26.7733 48.0366 23.9854C47.6579 22.0976 47.3751 20.7443 47.1858 19.9234C45.9564 20.8256 43.6843 22.754 40.3722 25.7086L39.6617 25.0929C43.259 20.5797 45.5285 17.871 46.4752 16.9687C46.3818 16.2312 46.1432 15.1237 45.767 13.6464C45.6711 13.1525 45.5777 12.7848 45.4818 12.539H37.8175V15.1237C38.9535 14.7132 40.1829 14.4674 41.5083 14.384L41.9337 15.1237C41.1763 15.3696 40.087 15.9019 38.6683 16.7229C38.2896 16.8875 38.0068 17.0094 37.8175 17.0927V25.8305H36.5389V25.7086L29.0172 18.8159C31.2867 17.4198 33.7948 16.2718 36.5389 15.3696V12.539H29.3L30.8613 9.33847H36.5389C36.5389 7.12357 36.0668 5.81087 35.1201 5.40039H34.6947C33.8415 5.31701 32.612 5.97335 31.0039 7.36942L30.2933 6.99956C32.376 3.63445 34.2201 2.0759 35.8307 2.32176H41.223L39.5215 5.40039H37.8175V9.33847H44.631C43.3057 4.8253 42.0271 2.81562 40.7977 3.30735L42.359 0.106866C42.5607 0.0149349 42.7598 -0.0171257 42.9565 0.00852946Z" fill="#89A264"/>
</svg>
